<svg width="32" height="32" viewBox="0 0 32 32" fill="none" xmlns="http://www.w3.org/2000/svg">
<rect x="11" y="11" width="10" height="10" fill="white"/>
<path d="M29.4108 9.2602C29.2514 8.66824 28.9394 8.12851 28.5059 7.69503C28.0724 7.26155 27.5327 6.94953 26.9408 6.7902C24.7608 6.2002 16.0008 6.2002 16.0008 6.2002C16.0008 6.2002 7.24075 6.2002 5.06075 6.7902C4.46879 6.94953 3.92906 7.26155 3.49559 7.69503C3.06211 8.12851 2.75009 8.66824 2.59075 9.2602C2.1837 11.4835 1.98617 13.74 2.00075 16.0002C1.98617 18.2604 2.1837 20.5169 2.59075 22.7402C2.75009 23.3322 3.06211 23.8719 3.49559 24.3054C3.92906 24.7388 4.46879 25.0509 5.06075 25.2102C7.24075 25.8002 16.0008 25.8002 16.0008 25.8002C16.0008 25.8002 24.7608 25.8002 26.9408 25.2102C27.5327 25.0509 28.0724 24.7388 28.5059 24.3054C28.9394 23.8719 29.2514 23.3322 29.4108 22.7402C29.8178 20.5169 30.0153 18.2604 30.0008 16.0002C30.0153 13.74 29.8178 11.4835 29.4108 9.2602V9.2602ZM13.2008 20.2002V11.8002L20.4708 16.0002L13.2008 20.2002Z" fill="#F63528"/>
</svg>
